<svg width="200" height="200" viewBox="0 0 200 200" xmlns="http://www.w3.org/2000/svg">
  <!-- إطار الفرن الخارجي (طوب) -->
  <path
    d="M 24 186 L 24 96 A 76 76 0 0 1 176 96 L 176 186 Z"
    fill="#8B4A2B"
  />
  <!-- فتحة الفرن الداخلية (توهج دافئ) -->
  <path
    d="M 42 186 L 42 98 A 58 58 0 0 1 158 98 L 158 186 Z"
    fill="#FFE3C2"
  />

  <!-- شريحة البيتزا (تملأ فتحة الفرن) -->
  <g>
    <!-- الحافة/العجين -->
    <path
      d="M 100 52 L 154 176 C 138 190 120 197 100 197 C 80 197 62 190 46 176 Z"
      fill="#E8C078"
    />
    <!-- الجبنة -->
    <path
      d="M 100 70 L 140 172 C 128 181 114 186 100 186 C 86 186 72 181 60 172 Z"
      fill="#F2A93B"
    />
    <!-- ببروني -->
    <circle cx="100" cy="104" r="11" fill="#B3261E" />
    <circle cx="76" cy="140" r="10" fill="#B3261E" />
    <circle cx="124" cy="144" r="10" fill="#B3261E" />
    <circle cx="100" cy="168" r="9.5" fill="#B3261E" />
  </g>
</svg>
